<svg xmlns="http://www.w3.org/2000/svg" version="1.1" xmlns:xlink="http://www.w3.org/1999/xlink" xmlns:svgjs="http://svgjs.dev/svgjs" width="1000" height="214" viewBox="0 0 1000 214"><g transform="matrix(1,0,0,1,-0.606047076432958,-0.33025802134544335)"><svg viewBox="0 0 396 85" data-background-color="#ffffff" preserveAspectRatio="xMidYMid meet" height="214" width="1000" xmlns="http://www.w3.org/2000/svg" xmlns:xlink="http://www.w3.org/1999/xlink"><g id="tight-bounds" transform="matrix(1,0,0,1,0.2399946422674475,0.1311772514689835)"><svg viewBox="0 0 395.52 84.73764518341524" height="84.73764518341524" width="395.52"><g><svg viewBox="0 0 489.74030208313934 104.92374582812414" height="84.73764518341524" width="395.52"><g><rect width="3.9803020332577526" height="91.10600216624381" x="79.820361219364" y="6.908871830940164" fill="#729343" opacity="1" stroke-width="0" stroke="transparent" fill-opacity="1" class="rect-o-0" data-fill-palette-color="primary" rx="1%" id="o-0" data-palette-color="#729343"></rect></g><g transform="matrix(1,0,0,1,94.22030208313944,14.501038678127145)"><svg viewBox="0 0 395.5199999999999 75.92166847186985" height="75.92166847186985" width="395.5199999999999"><g id="textblocktransform"><svg viewBox="0 0 395.5199999999999 75.92166847186985" height="75.92166847186985" width="395.5199999999999" id="textblock"><g><svg viewBox="0 0 395.5199999999999 44.136798448455906" height="44.136798448455906" width="395.5199999999999"><g transform="matrix(1,0,0,1,0,0)"><svg width="395.5199999999999" viewBox="0.07000000774860382 -36.040000915527344 327.2699890136719 36.53000259399414" height="44.136798448455906" data-palette-color="#729343"><path d="M16.02-8.11L24.02-35.55 32.86-35.55 20.63 0 14.84 0 16.02-8.11ZM8.89-35.55L16.82-8.11 18.07 0 12.23 0 0.07-35.55 8.89-35.55ZM44.28-35.55L44.28 0 36.37 0 36.37-35.55 44.28-35.55ZM65.52-28.47L56.27 0 47.8 0 60.98-35.55 66.33-35.55 65.52-28.47ZM73.12 0L63.81-28.47 62.93-35.55 68.35-35.55 81.59 0 73.12 0ZM72.9-13.31L72.9-6.88 54.17-6.88 54.17-13.31 72.9-13.31ZM105.02-35.55L105.02 0 97.06 0 97.06-35.55 105.02-35.55ZM118.86-20.65L118.86-14.26 102.87-14.26 102.87-20.65 118.86-20.65ZM120.47-35.55L120.47-29.13 102.87-29.13 102.87-35.55 120.47-35.55ZM134.41-28.47L125.16 0 116.69 0 129.87-35.55 135.22-35.55 134.41-28.47ZM142 0L132.7-28.47 131.82-35.55 137.24-35.55 150.48 0 142 0ZM141.78-13.31L141.78-6.88 123.06-6.88 123.06-13.31 141.78-13.31ZM182.77-35.55L182.77 0 174.84 0 161.41-22.46 161.41 0 153.48 0 153.48-35.55 161.41-35.55 174.86-13.06 174.86-35.55 182.77-35.55ZM205.23-35.55L205.23 0 197.32 0 197.32-35.55 205.23-35.55ZM215.97-35.55L215.97-29.13 186.73-29.13 186.73-35.55 215.97-35.55ZM231.57-28.47L222.32 0 213.85 0 227.03-35.55 232.38-35.55 231.57-28.47ZM239.16 0L229.86-28.47 228.98-35.55 234.4-35.55 247.64 0 239.16 0ZM238.94-13.31L238.94-6.88 220.22-6.88 220.22-13.31 238.94-13.31ZM268.97-9.4L268.97-9.4Q268.97-10.57 268.48-11.43 268-12.28 266.58-13.06 265.16-13.84 262.38-14.72L262.38-14.72Q259.99-15.5 257.83-16.49 255.67-17.48 253.99-18.81 252.32-20.14 251.36-21.91 250.39-23.68 250.39-26.05L250.39-26.05Q250.39-29.08 252.11-31.31 253.83-33.54 256.85-34.79 259.87-36.04 263.75-36.04L263.75-36.04Q267.7-36.04 270.66-34.66 273.61-33.28 275.27-30.79 276.93-28.3 276.93-25.02L276.93-25.02 269-25.02Q269-26.42 268.42-27.48 267.85-28.54 266.65-29.14 265.46-29.74 263.6-29.74L263.6-29.74Q261.84-29.74 260.66-29.24 259.47-28.74 258.9-27.89 258.33-27.05 258.33-25.98L258.33-25.98Q258.33-24.88 259.12-24.05 259.91-23.22 261.43-22.52 262.94-21.83 265.07-21.14L265.07-21.14Q268.95-19.95 271.58-18.36 274.22-16.77 275.56-14.6 276.91-12.43 276.91-9.45L276.91-9.45Q276.91-6.32 275.31-4.09 273.71-1.86 270.78-0.68 267.85 0.49 263.89 0.49L263.89 0.49Q261.21 0.49 258.62-0.21 256.03-0.9 253.92-2.37 251.81-3.83 250.56-6.08 249.32-8.33 249.32-11.4L249.32-11.4 257.28-11.4Q257.28-9.84 257.73-8.76 258.18-7.69 259.05-7.02 259.91-6.35 261.15-6.05 262.38-5.76 263.89-5.76L263.89-5.76Q265.68-5.76 266.79-6.25 267.9-6.74 268.43-7.57 268.97-8.4 268.97-9.4ZM290.04-35.55L290.04 0 282.13 0 282.13-35.55 290.04-35.55ZM311.28-28.47L302.02 0 293.55 0 306.74-35.55 312.08-35.55 311.28-28.47ZM318.87 0L309.57-28.47 308.69-35.55 314.11-35.55 327.34 0 318.87 0ZM318.65-13.31L318.65-6.88 299.92-6.88 299.92-13.31 318.65-13.31Z" opacity="1" transform="matrix(1,0,0,1,0,0)" fill="#729343" class="undefined-text-0" data-fill-palette-color="primary" id="text-0"></path></svg></g></svg></g><g transform="matrix(1,0,0,1,0,54.55643727897358)"><svg viewBox="0 0 232.20979199999994 21.36523119289627" height="21.36523119289627" width="232.20979199999994"><g transform="matrix(1,0,0,1,0,0)"><svg width="232.20979199999994" viewBox="1.2699999809265137 -38.15999984741211 516.8499755859375 47.55999755859375" height="21.36523119289627" data-palette-color="#729343"><path d="M18.75-33.08L18.75-33.08Q23.32-33.08 26.54-31.49L26.54-31.49 26.54-24.02 26.49-23.97Q25.12-26.07 20.73-26.76L20.73-26.76Q19.43-26.98 17.46-26.98 15.48-26.98 13.57-26.23 11.67-25.49 10.45-24.12L10.45-24.12Q8.08-21.46 8.08-16.53L8.08-16.53Q8.08-10.79 11.08-7.98L11.08-7.98Q13.57-5.64 17.68-5.64L17.68-5.64Q22.31-5.64 25.2-7.62L25.2-7.62Q26.25-8.33 26.98-9.38L26.98-9.38 27.05-9.33 27.05-2.49Q23.32 0.61 16.99 0.61L16.99 0.61Q9.55 0.61 5.32-4.13L5.32-4.13Q1.27-8.64 1.27-16.09L1.27-16.09Q1.27-23.97 5.71-28.52L5.71-28.52Q10.21-33.08 18.75-33.08ZM31.37-12.55L31.37-12.55Q31.37-15.41 32.35-17.85 33.32-20.29 35.1-22.12L35.1-22.12Q38.91-26 45.07-26L45.07-26Q50.27-26 53.42-22.56L53.42-22.56Q56.52-19.24 56.52-14.21L56.52-14.21Q56.52-12.28 56.22-11.57L56.22-11.57Q53.78-10.89 46.29-10.89L46.29-10.89 37.69-10.89Q38.33-8.28 40.65-6.82 42.97-5.37 46.68-5.37L46.68-5.37Q50.56-5.37 53.34-6.76L53.34-6.76Q54.07-7.13 54.44-7.45L54.44-7.45Q54.39-6.42 54.32-5.35L54.32-5.35 54.05-1.54Q52.19-0.27 48.04 0.22L48.04 0.22Q46.82 0.37 45.7 0.37L45.7 0.37Q39.5 0.37 35.45-3.25L35.45-3.25Q31.37-6.88 31.37-12.55ZM50.02-15.63L50.02-15.63Q49.02-20.87 44.31-20.87L44.31-20.87Q40.6-20.87 38.67-17.68L38.67-17.68Q38.08-16.7 37.77-15.53L37.77-15.53Q38.35-15.5 39.21-15.48L39.21-15.48 41.01-15.48Q41.92-15.45 42.75-15.45L42.75-15.45 44.14-15.45Q45.38-15.45 46.58-15.48L46.58-15.48 48.58-15.55Q49.39-15.58 50.02-15.63ZM70.41 0.37L70.41 0.37Q63.52 0.37 60.03-2.15L60.03-2.15Q60.08-2.88 60.18-3.81L60.18-3.81 60.4-5.57Q60.59-7.3 60.64-7.73 60.69-8.15 60.71-8.19 60.74-8.23 61.1-7.8 61.47-7.37 62.5-6.76 63.52-6.15 64.86-5.69L64.86-5.69Q67.77-4.69 70.92-4.69L70.92-4.69Q75.14-4.69 75.14-7.5L75.14-7.5Q75.14-8.4 74.34-8.84L74.34-8.84Q72.9-9.57 70.1-9.95 67.3-10.33 65.52-11.06 63.74-11.79 62.62-12.82L62.62-12.82Q60.54-14.75 60.54-17.87L60.54-17.87Q60.54-21.68 63.47-23.85L63.47-23.85Q66.38-26 71.5-26L71.5-26Q76.58-26 80.17-23.12L80.17-23.12Q80-22.49 79.8-21.9L79.8-21.9Q79.24-20.29 78.97-19.58L78.97-19.58 78.41-18.14Q78.36-17.94 78.34-17.94L78.34-17.94Q78.29-17.94 77.95-18.46L77.95-18.46Q76.41-20.24 73.16-20.8L73.16-20.8Q72.16-21 71.11-21L71.11-21Q66.67-21 66.67-18.31L66.67-18.31Q66.67-17.38 67.6-16.89L67.6-16.89Q69.33-15.97 72.35-15.53 75.36-15.09 76.92-14.34 78.49-13.6 79.44-12.55L79.44-12.55Q81.2-10.64 81.2-7.5L81.2-7.5Q81.2-4.05 78.44-1.9L78.44-1.9Q75.56 0.37 70.41 0.37ZM98.19-5.37L98.19-5.37Q101.34-5.37 102.51-7.01L102.51-7.01 102.7-7.01 102.78-1.34Q101.58-0.15 98.33 0.24L98.33 0.24Q97.45 0.37 96.15 0.37 94.84 0.37 93.32-0.12 91.79-0.61 90.72-1.71L90.72-1.71Q88.49-3.98 88.49-8.81L88.49-8.81 88.49-19.9 84.81-19.9Q84.78-20.61 84.78-21.34L84.78-21.34 84.78-25.1Q84.78-25.51 84.81-25.51L84.81-25.51 88.49-25.51 88.49-32.47 94.47-32.47 94.47-25.51 101.19-25.51 101.19-19.9 94.47-19.9 94.47-9.94Q94.47-6.1 96.6-5.57L96.6-5.57Q97.28-5.37 98.19-5.37ZM123.01 0L123.01-2.22Q119.89 0.37 116.2 0.37L116.2 0.37Q112.25 0.37 110-2.29L110-2.29Q107.85-4.88 107.85-9.4L107.85-9.4 107.85-19.09Q107.85-23.97 107.64-24.69 107.44-25.42 107.34-25.61L107.34-25.61Q108.46-25.51 109.68-25.51L109.68-25.51 111.71-25.51Q112.51-25.51 113.83-25.59L113.83-25.59 113.83-11.45Q113.83-6.42 116.57-5.62L116.57-5.62Q117.4-5.37 118.37-5.37L118.37-5.37Q121.25-5.37 123.01-7.47L123.01-7.47 123.01-25.51 129.07-25.51 129.07-3.13Q129.07-0.98 129.26 0L129.26 0 123.01 0ZM140.49-29.1L135.58-32.62Q137.17-35.16 139.22-37.4L139.22-37.4 143.88-33.72Q142.66-32.15 142.22-31.57L142.22-31.57 141.37-30.37Q140.95-29.81 140.49-29.1L140.49-29.1ZM132.87 3.78L132.87 3.78Q136.49 3.78 136.49-1.59L136.49-1.59 136.49-25.51 142.42-25.51 142.42-3.34Q142.42 6.91 136.58 8.79L136.58 8.79Q134.68 9.4 132.26 9.4L132.26 9.4 129.72 2.98 129.77 2.86Q131.16 3.78 132.87 3.78ZM148.15-12.55L148.15-12.55Q148.15-15.41 149.13-17.85 150.11-20.29 151.89-22.12L151.89-22.12Q155.7-26 161.85-26L161.85-26Q167.05-26 170.2-22.56L170.2-22.56Q173.3-19.24 173.3-14.21L173.3-14.21Q173.3-12.28 173.01-11.57L173.01-11.57Q170.57-10.89 163.07-10.89L163.07-10.89 154.48-10.89Q155.11-8.28 157.43-6.82 159.75-5.37 163.46-5.37L163.46-5.37Q167.34-5.37 170.13-6.76L170.13-6.76Q170.86-7.13 171.23-7.45L171.23-7.45Q171.18-6.42 171.1-5.35L171.1-5.35 170.83-1.54Q168.98-0.27 164.83 0.22L164.83 0.22Q163.61 0.37 162.49 0.37L162.49 0.37Q156.28 0.37 152.23-3.25L152.23-3.25Q148.15-6.88 148.15-12.55ZM166.81-15.63L166.81-15.63Q165.81-20.87 161.09-20.87L161.09-20.87Q157.38-20.87 155.45-17.68L155.45-17.68Q154.87-16.7 154.55-15.53L154.55-15.53Q155.14-15.5 155.99-15.48L155.99-15.48 157.8-15.48Q158.7-15.45 159.53-15.45L159.53-15.45 160.92-15.45Q162.17-15.45 163.36-15.48L163.36-15.48 165.37-15.55Q166.17-15.58 166.81-15.63ZM185.19-17.16L185.19-7.06Q185.19-1.56 185.38 0L185.38 0 179.01 0 179.01-25.51 185.19-25.51 185.19-23.32Q188.53-26 192.05-26L192.05-26Q196.2-26 198.08-22.41L198.08-22.41Q199.96-24.34 201.2-24.95L201.2-24.95Q203.28-26 205.37-26 207.45-26 208.92-25.29 210.38-24.58 211.34-23.29L211.34-23.29Q213.26-20.68 213.26-16.11L213.26-16.11 213.26-6.4Q213.26-2.27 213.39-1.44 213.51-0.61 213.72-0.37 213.92-0.12 214.07 0.07L214.07 0.07 214.02 0.17Q212.07 0 211.14 0L211.14 0 209.31 0Q208.41 0 207.09 0.07L207.09 0.07 207.09-13.13Q207.09-18.85 205.33-19.92L205.33-19.92Q204.74-20.26 203.95-20.26 203.16-20.26 202.55-20.08 201.94-19.9 201.4-19.48L201.4-19.48Q200.5-18.82 199.35-16.89L199.35-16.89Q199.37-16.7 199.37-16.5 199.37-16.31 199.37-10.06 199.37-3.81 199.67 0L199.67 0Q197.59 0 196.14 0 194.68 0 193.37 0.07L193.37 0.07 193.37-13.16Q193.37-17.14 192.89-18.33 192.41-19.53 191.88-19.9 191.34-20.26 190.56-20.26L190.56-20.26Q187.34-20.26 185.19-17.16L185.19-17.16ZM219.12-12.55L219.12-12.55Q219.12-15.41 220.1-17.85 221.07-20.29 222.86-22.12L222.86-22.12Q226.66-26 232.82-26L232.82-26Q238.02-26 241.17-22.56L241.17-22.56Q244.27-19.24 244.27-14.21L244.27-14.21Q244.27-12.28 243.97-11.57L243.97-11.57Q241.53-10.89 234.04-10.89L234.04-10.89 225.44-10.89Q226.08-8.28 228.4-6.82 230.72-5.37 234.43-5.37L234.43-5.37Q238.31-5.37 241.09-6.76L241.09-6.76Q241.83-7.13 242.19-7.45L242.19-7.45Q242.14-6.42 242.07-5.35L242.07-5.35 241.8-1.54Q239.95-0.27 235.8 0.22L235.8 0.22Q234.57 0.37 233.45 0.37L233.45 0.37Q227.25 0.37 223.2-3.25L223.2-3.25Q219.12-6.88 219.12-12.55ZM237.77-15.63L237.77-15.63Q236.77-20.87 232.06-20.87L232.06-20.87Q228.35-20.87 226.42-17.68L226.42-17.68Q225.83-16.7 225.52-15.53L225.52-15.53Q226.1-15.5 226.96-15.48L226.96-15.48 228.76-15.48Q229.67-15.45 230.5-15.45L230.5-15.45 231.89-15.45Q233.13-15.45 234.33-15.48L234.33-15.48 236.33-15.55Q237.14-15.58 237.77-15.63ZM274.73 0.37L274.73 0.37Q267.85 0.37 264.35-2.15L264.35-2.15Q264.4-2.88 264.5-3.81L264.5-3.81 264.72-5.57Q264.92-7.3 264.97-7.73 265.01-8.15 265.04-8.19 265.06-8.23 265.43-7.8 265.8-7.37 266.82-6.76 267.85-6.15 269.19-5.69L269.19-5.69Q272.09-4.69 275.24-4.69L275.24-4.69Q279.47-4.69 279.47-7.5L279.47-7.5Q279.47-8.4 278.66-8.84L278.66-8.84Q277.22-9.57 274.43-9.95 271.63-10.33 269.85-11.06 268.07-11.79 266.94-12.82L266.94-12.82Q264.87-14.75 264.87-17.87L264.87-17.87Q264.87-21.68 267.8-23.85L267.8-23.85Q270.7-26 275.83-26L275.83-26Q280.91-26 284.5-23.12L284.5-23.12Q284.33-22.49 284.13-21.9L284.13-21.9Q283.57-20.29 283.3-19.58L283.3-19.58 282.74-18.14Q282.69-17.94 282.67-17.94L282.67-17.94Q282.62-17.94 282.27-18.46L282.27-18.46Q280.74-20.24 277.49-20.8L277.49-20.8Q276.49-21 275.44-21L275.44-21Q271-21 271-18.31L271-18.31Q271-17.38 271.92-16.89L271.92-16.89Q273.66-15.97 276.67-15.53 279.69-15.09 281.25-14.34 282.81-13.6 283.76-12.55L283.76-12.55Q285.52-10.64 285.52-7.5L285.52-7.5Q285.52-4.05 282.76-1.9L282.76-1.9Q279.88 0.37 274.73 0.37ZM314.11-0.51L314.11-0.51 314.11 6.67Q314.11 8.76 314.2 9.4L314.2 9.4 308.12 9.4 308.12-25.51 314.11-25.51 314.11-23.93Q317.06-26 319.77-26 322.48-26 324.58-25.24 326.68-24.49 328.27-22.9L328.27-22.9Q331.76-19.46 331.76-13.09L331.76-13.09Q331.76-8.86 329.78-5.54L329.78-5.54Q328.1-2.73 325.12-1.05L325.12-1.05Q322.48 0.44 319.4 0.44 316.33 0.44 314.11-0.51ZM314.11-18.43L314.11-6.67Q315.96-5.1 318.92-5.1L318.92-5.1Q323.75-5.1 325.17-9.77L325.17-9.77Q325.65-11.35 325.65-13.17 325.65-14.99 325.31-16.08 324.97-17.16 324.42-17.96 323.87-18.75 323.19-19.27 322.5-19.8 321.8-20.12L321.8-20.12Q320.55-20.68 319.23-20.68 317.91-20.68 316.5-20.07 315.08-19.46 314.11-18.43L314.11-18.43ZM342.64-17.77L342.64-2.73Q342.64-0.63 342.74 0L342.74 0 336.66 0 336.66-25.51 342.64-25.51 342.64-23.63Q344.72-26 347-26 349.28-26 350.6-25.44L350.6-25.44 350.16-18.87 350.07-18.8Q349.21-20.31 346.53-20.31L346.53-20.31Q345.5-20.31 344.44-19.62 343.38-18.92 342.64-17.77L342.64-17.77ZM358.29-28.83L352.8-32.79Q354.75-35.84 356.87-38.16L356.87-38.16 362.12-34.03Q361.07-32.74 360.17-31.49L360.17-31.49Q360.17-31.49 358.29-28.83L358.29-28.83ZM359.22-25.51L359.22-2.73Q359.22-0.63 359.32 0L359.32 0 353.11 0 353.11-25.51 359.22-25.51ZM372.2-36.33L372.2-24.58Q374.94-26 377.79-26 380.65-26 382.71-25.11 384.78-24.22 386.34-22.56L386.34-22.56Q389.73-18.87 389.73-13.23L389.73-13.23Q389.73-7.06 386.05-3.27L386.05-3.27Q382.51 0.37 377.23 0.37L377.23 0.37Q372.59 0.37 369.59-2.05L369.59-2.05Q366.22-4.79 366.22-9.59L366.22-9.59 366.22-36.33 372.2-36.33ZM372.2-18.41L372.2-9.67Q372.2-5.37 377.55-5.37L377.55-5.37Q380.16-5.37 381.94-7.67L381.94-7.67Q383.75-10.01 383.75-13.5L383.75-13.5Q383.75-17.02 381.85-18.8L381.85-18.8Q380.14-20.39 377.26-20.39L377.26-20.39Q375.52-20.39 373.42-19.21L373.42-19.21Q372.77-18.85 372.2-18.41L372.2-18.41ZM393.86-12.55L393.86-12.55Q393.86-15.41 394.83-17.85 395.81-20.29 397.59-22.12L397.59-22.12Q401.4-26 407.55-26L407.55-26Q412.75-26 415.9-22.56L415.9-22.56Q419-19.24 419-14.21L419-14.21Q419-12.28 418.71-11.57L418.71-11.57Q416.27-10.89 408.77-10.89L408.77-10.89 400.18-10.89Q400.81-8.28 403.13-6.82 405.45-5.37 409.16-5.37L409.16-5.37Q413.05-5.37 415.83-6.76L415.83-6.76Q416.56-7.13 416.93-7.45L416.93-7.45Q416.88-6.42 416.81-5.35L416.81-5.35 416.54-1.54Q414.68-0.27 410.53 0.22L410.53 0.22Q409.31 0.37 408.19 0.37L408.19 0.37Q401.99 0.37 397.93-3.25L397.93-3.25Q393.86-6.88 393.86-12.55ZM412.51-15.63L412.51-15.63Q411.51-20.87 406.8-20.87L406.8-20.87Q403.09-20.87 401.16-17.68L401.16-17.68Q400.57-16.7 400.25-15.53L400.25-15.53Q400.84-15.5 401.69-15.48L401.69-15.48 403.5-15.48Q404.4-15.45 405.23-15.45L405.23-15.45 406.63-15.45Q407.87-15.45 409.07-15.48L409.07-15.48 411.07-15.55Q411.87-15.58 412.51-15.63ZM430.91-16.97L430.91-2.73Q430.91-0.63 431.01 0L431.01 0 424.93 0 424.93-34.91 430.91-34.91 430.91-23.61Q434.06-26 437.41-26L437.41-26Q441.51-26 444-23.29L444-23.29Q446.44-20.58 446.44-16.11L446.44-16.11 446.44-6.4Q446.44-2.27 446.56-1.44 446.69-0.61 446.89-0.37 447.1-0.12 447.25 0.07L447.25 0.07 447.2 0.17Q445.22 0 444.32 0L444.32 0 442.58 0Q441.78 0 440.46 0.07L440.46 0.07 440.46-14.06Q440.46-17.43 438.97-19.04L438.97-19.04Q437.85-20.26 435.92-20.26L435.92-20.26Q433.06-20.26 430.91-16.97L430.91-16.97ZM452.2-12.55L452.2-12.55Q452.2-15.41 453.18-17.85 454.15-20.29 455.94-22.12L455.94-22.12Q459.75-26 465.9-26L465.9-26Q471.1-26 474.25-22.56L474.25-22.56Q477.35-19.24 477.35-14.21L477.35-14.21Q477.35-12.28 477.05-11.57L477.05-11.57Q474.61-10.89 467.12-10.89L467.12-10.89 458.52-10.89Q459.16-8.28 461.48-6.82 463.8-5.37 467.51-5.37L467.51-5.37Q471.39-5.37 474.17-6.76L474.17-6.76Q474.91-7.13 475.27-7.45L475.27-7.45Q475.22-6.42 475.15-5.35L475.15-5.35 474.88-1.54Q473.03-0.27 468.88 0.22L468.88 0.22Q467.66 0.37 466.53 0.37L466.53 0.37Q460.33 0.37 456.28-3.25L456.28-3.25Q452.2-6.88 452.2-12.55ZM470.85-15.63L470.85-15.63Q469.85-20.87 465.14-20.87L465.14-20.87Q461.43-20.87 459.5-17.68L459.5-17.68Q458.91-16.7 458.6-15.53L458.6-15.53Q459.18-15.5 460.04-15.48L460.04-15.48 461.84-15.48Q462.75-15.45 463.58-15.45L463.58-15.45 464.97-15.45Q466.21-15.45 467.41-15.48L467.41-15.48 469.41-15.55Q470.22-15.58 470.85-15.63ZM489.23-17.16L489.23-7.06Q489.23-1.56 489.43 0L489.43 0 483.06 0 483.06-25.51 489.23-25.51 489.23-23.32Q492.58-26 496.1-26L496.1-26Q500.25-26 502.13-22.41L502.13-22.41Q504.01-24.34 505.25-24.95L505.25-24.95Q507.33-26 509.41-26 511.5-26 512.97-25.29 514.43-24.58 515.38-23.29L515.38-23.29Q517.31-20.68 517.31-16.11L517.31-16.11 517.31-6.4Q517.31-2.27 517.43-1.44 517.56-0.61 517.76-0.37 517.97-0.12 518.12 0.07L518.12 0.07 518.07 0.17Q516.11 0 515.19 0L515.19 0 513.36 0Q512.45 0 511.13 0.07L511.13 0.07 511.13-13.13Q511.13-18.85 509.38-19.92L509.38-19.92Q508.79-20.26 508-20.26 507.2-20.26 506.59-20.08 505.98-19.9 505.45-19.48L505.45-19.48Q504.54-18.82 503.39-16.89L503.39-16.89Q503.42-16.7 503.42-16.5 503.42-16.31 503.42-10.06 503.42-3.81 503.71 0L503.71 0Q501.64 0 500.18 0 498.73 0 497.41 0.07L497.41 0.07 497.41-13.16Q497.41-17.14 496.94-18.33 496.46-19.53 495.92-19.9 495.39-20.26 494.61-20.26L494.61-20.26Q491.38-20.26 489.23-17.16L489.23-17.16Z" opacity="1" transform="matrix(1,0,0,1,0,0)" fill="#729343" class="undefined-text-1" data-fill-palette-color="secondary" id="text-1"></path></svg></g></svg></g></svg></g></svg></g><g><svg viewBox="0 0 69.40072238884632 104.92374582812414" height="104.92374582812414" width="69.40072238884632"><g><svg xmlns="http://www.w3.org/2000/svg" xmlns:xlink="http://www.w3.org/1999/xlink" version="1.1" x="0" y="0" viewBox="21 1.9999995231628418 63.397003173828125 95.84700012207031" enable-background="new 0 0 100 100" xml:space="preserve" height="104.92374582812414" width="69.40072238884632" class="icon-icon-0" data-fill-palette-color="accent" id="icon-0"><path d="M52.508 97.847c0-4.802-1.304-9.296-3.568-13.16-6.748 2.922-14.182 4.55-21.99 4.55-0.202 0-0.402-0.003-0.603-0.007l-0.133-0.002c-0.041-0.002-0.08-0.012-0.12-0.015v8.634H52.508z" fill="#729343" data-fill-palette-color="accent"></path><path d="M71.362 15.171c-4.71-4.666-11.19-7.549-18.344-7.549-0.114 0-0.228 0.003-0.341 0.005-0.113-0.001-0.227-0.005-0.342-0.005-7.133 0-13.593 2.867-18.301 7.509v0.075c-0.026 0-0.049-0.003-0.075-0.003-4.751 4.722-7.694 11.262-7.694 18.49v12.506h26.066 3.368l0.035 3.368 0.001 0.108 0.003 0.27c0 16.25-13.221 29.473-29.474 29.473v6.408c0.228 0.004 0.454 0.008 0.683 0.008 28.796 0 52.141-23.343 52.141-52.14h-0.002c0-7.227-2.94-13.766-7.69-18.487-0.012 0-0.023 0.001-0.035 0.001V15.171zM31.659 25.83c0-5.616 4.553-10.169 10.169-10.169 5.616 0 10.169 4.553 10.169 10.169s-4.553 10.169-10.169 10.169C36.212 35.999 31.659 31.446 31.659 25.83zM52.658 41.65l-4.669-4.67c2.546-2.546 6.672-2.545 9.217 0 0.021 0.02 0.04 0.041 0.061 0.062L52.658 41.65zM73.696 25.83c0 5.616-4.554 10.169-10.17 10.169S53.357 31.446 53.357 25.83 57.91 15.66 63.526 15.66 73.696 20.213 73.696 25.83z" fill="#729343" data-fill-palette-color="accent"></path><path d="M26.267 76.014c14.399 0 26.071-11.672 26.071-26.07 0-0.115-0.004-0.229-0.005-0.342H26.267V76.014z" fill="#729343" data-fill-palette-color="accent"></path><circle cx="41.829" cy="25.829" r="4.2" fill="#729343" data-fill-palette-color="accent"></circle><circle cx="63.526" cy="25.829" r="4.2" fill="#729343" data-fill-palette-color="accent"></circle><path d="M33.96 15.203c0.025 0 0.049 0.003 0.075 0.003v-0.075-4.515V2H21.002C21.002 2.058 21 2.114 21 2.171c0 5.773 3.757 10.662 8.957 12.375C31.218 14.961 32.562 15.195 33.96 15.203z" fill="#729343" data-fill-palette-color="accent"></path><path d="M71.362 15.171v0.035c0.012 0 0.023-0.001 0.035-0.001 1.4-0.005 2.747-0.235 4.011-0.647 5.217-1.703 8.989-6.602 8.989-12.387 0-0.058-0.002-0.114-0.002-0.171H71.362v8.649V15.171z" fill="#729343" data-fill-palette-color="accent"></path></svg></g></svg></g></svg></g><defs></defs></svg><rect width="395.52" height="84.73764518341524" fill="none" stroke="none" visibility="hidden"></rect></g></svg></g></svg>