<?xml version="1.0" standalone="no"?>
<!DOCTYPE svg PUBLIC "-//W3C//DTD SVG 20010904//EN"
 "http://www.w3.org/TR/2001/REC-SVG-20010904/DTD/svg10.dtd">
<svg version="1.0" xmlns="http://www.w3.org/2000/svg"
 width="215.000000pt" height="215.000000pt" viewBox="0 0 215.000000 215.000000"
 preserveAspectRatio="xMidYMid meet">
<metadata>
Created by potrace 1.14, written by Peter Selinger 2001-2017
</metadata>
<g transform="translate(0.000000,215.000000) scale(0.100000,-0.100000)"
fill="#000000" stroke="none">
<path d="M300 2100 c0 -81 41 -146 128 -201 49 -31 130 -49 141 -31 4 6 6 71
6 144 l0 133 -138 3 -137 3 0 -51z"/>
<path d="M1409 2138 c-1 -7 -1 -73 -1 -145 -1 -73 -5 -133 -9 -133 -5 0 -9 4
-9 9 0 13 -110 85 -167 109 -128 54 -312 62 -418 17 -20 -8 -38 -14 -40 -14
-3 -1 -27 -12 -53 -25 -75 -38 -146 -99 -195 -168 -94 -133 -114 -212 -113
-453 l1 -169 327 -1 328 0 -4 -90 c-7 -148 -49 -273 -130 -383 -112 -153 -308
-258 -487 -261 l-36 -1 1 -72 1 -73 75 3 c496 21 951 394 1061 872 18 75 19
83 27 140 28 220 -20 404 -140 531 -20 21 -14 29 21 29 40 0 122 44 163 86 42
44 75 112 80 164 l3 35 -142 3 c-111 2 -143 0 -144 -10z m-572 -314 c76 -28
136 -118 136 -204 0 -123 -101 -223 -223 -223 -91 1 -158 41 -200 120 -54 105
-16 237 85 294 68 39 123 42 202 13z m495 -5 c167 -85 162 -323 -9 -404 -77
-37 -194 -15 -254 48 -34 35 -60 103 -61 156 0 97 59 180 153 211 61 21 116
17 171 -11z m-257 -435 c19 -14 17 -16 -33 -67 l-52 -52 -52 52 c-58 58 -57
65 7 87 41 14 94 6 130 -20z"/>
<path d="M720 1708 c-81 -30 -85 -140 -8 -173 60 -25 127 17 128 78 0 67 -62
116 -120 95z"/>
<path d="M1213 1712 c-12 -2 -34 -15 -48 -30 -23 -23 -26 -33 -22 -69 5 -48
24 -71 69 -84 45 -12 89 15 106 65 11 34 10 42 -6 69 -19 33 -64 55 -99 49z"/>
<path d="M402 796 l1 -294 46 3 c275 21 502 243 527 516 l7 69 -290 0 -291 0
0 -294z"/>
<path d="M799 274 c-53 -19 -114 -36 -134 -40 -21 -3 -47 -8 -59 -10 -11 -3
-61 -7 -111 -10 -49 -4 -91 -7 -92 -8 -3 -3 -5 -56 -4 -118 l1 -68 294 0 294
0 -4 43 c-10 91 -64 251 -83 246 -3 -1 -49 -17 -102 -35z"/>
</g>
</svg>
